Coordinates	
version=1	
nRows=378	
nColumns=2	
inDegrees=yes	
endheader	
time	elbow_flexion
2.506953195	8.93643025
2.50938404	8.883637515
2.511814886	8.830564339
2.514245731	8.777269357
2.516676576	8.723812408
2.519107421	8.670254496
2.521538266	8.616657755
2.523969111	8.563085397
2.526399956	8.509601661
2.528830801	8.45627175
2.531261646	8.40316177
2.533692491	8.350338645
2.536123337	8.297870043
2.538554182	8.245824277
2.540985027	8.194270205
2.543415872	8.143277127
2.545846717	8.09291466
2.548277562	8.043252615
2.550708407	7.994360864
2.553139252	7.946309193
2.555570097	7.899167155
2.558000942	7.853003911
2.560431788	7.807888063
2.562862633	7.763887479
2.565293478	7.721069122
2.567724323	7.67949886
2.570155168	7.639241282
2.572586013	7.600359503
2.575016858	7.562914975
2.577447703	7.526967288
2.579878548	7.492573978
2.582309393	7.459790328
2.584740239	7.428669181
2.587171084	7.399260748
2.589601929	7.371612428
2.592032774	7.345768625
2.594463619	7.321770584
2.596894464	7.299656227
2.599325309	7.279460005
2.601756154	7.261212754
2.604186999	7.244941574
2.606617844	7.230669712
2.60904869	7.218416466
2.611479535	7.208197101
2.61391038	7.200022784
2.616341225	7.193900532
2.61877207	7.189833182
2.621202915	7.187819376
2.62363376	7.187853564
2.626064605	7.189926026
2.62849545	7.194022908
2.630926295	7.200126283
2.633357141	7.208214221
2.635787986	7.218260879
2.638218831	7.230236607
2.640649676	7.244108067
2.643080521	7.25983837
2.645511366	7.277387216
2.647942211	7.296711059
2.650373056	7.317763273
2.652803901	7.340494326
2.655234746	7.364851973
2.657665592	7.39078144
2.660096437	7.418225626
2.662527282	7.447125301
2.664958127	7.477419312
2.667388972	7.509044784
2.669819817	7.541937327
2.672250662	7.576031239
2.674681507	7.611259704
2.677112352	7.647554991
2.679543197	7.68484865
2.681974043	7.723071693
2.684404888	7.762154783
2.686835733	7.802028402
2.689266578	7.842623025
2.691697423	7.883869274
2.694128268	7.925698073
2.696559113	7.968040791
2.698989958	8.010829373
2.701420803	8.05399647
2.703851648	8.097475551
2.706282494	8.141201013
2.708713339	8.185108278
2.711144184	8.229133885
2.713575029	8.273215567
2.716005874	8.317292327
2.718436719	8.361304505
2.720867564	8.405193829
2.723298409	8.448903472
2.725729254	8.492378089
2.7281601	8.535563854
2.730590945	8.578408495
2.73302179	8.620861312
2.735452635	8.662873195
2.73788348	8.704396646
2.740314325	8.745385775
2.74274517	8.785796316
2.745176015	8.825585621
2.74760686	8.864712656
2.750037705	8.903138001
2.752468551	8.940823832
2.754899396	8.977733899
2.757330241	9.013833535
2.759761086	9.049089651
2.762191931	9.083470695
2.764622776	9.116946633
2.767053621	9.149488929
2.769484466	9.181070527
2.771915311	9.211665826
2.774346156	9.24125066
2.776777002	9.269802275
2.779207847	9.297299301
2.781638692	9.323721735
2.784069537	9.349050911
2.786500382	9.37326948
2.788931227	9.396361385
2.791362072	9.418311841
2.793792917	9.439107309
2.796223762	9.458735477
2.798654607	9.477185232
2.801085453	9.494446644
2.803516298	9.510510943
2.805947143	9.525370499
2.808377988	9.539018803
2.810808833	9.551450448
2.813239678	9.562661112
2.815670523	9.572647541
2.818101368	9.581407532
2.820532213	9.588939918
2.822963058	9.59524455
2.825393904	9.60032229
2.827824749	9.60417499
2.830255594	9.606805485
2.832686439	9.608217579
2.835117284	9.608416033
2.837548129	9.607406558
2.839978974	9.605195801
2.842409819	9.60179134
2.844840664	9.597201675
2.847271509	9.591436219
2.849702355	9.584505292
2.8521332	9.576420114
2.854564045	9.5671928
2.85699489	9.556836357
2.859425735	9.545364675
2.86185658	9.532792524
2.864287425	9.519135554
2.86671827	9.504410286
2.869149115	9.488634115
2.87157996	9.4718253
2.874010806	9.454002968
2.876441651	9.435187111
2.878872496	9.41539858
2.881303341	9.394659086
2.883734186	9.372991197
2.886165031	9.350418339
2.888595876	9.326964791
2.891026721	9.302655686
2.893457566	9.277517002
2.895888411	9.251575564
2.898319257	9.224859037
2.900750102	9.197395926
2.903180947	9.169215568
2.905611792	9.140348125
2.908042637	9.110824583
2.910473482	9.08067674
2.912904327	9.049937198
2.915335172	9.018639357
2.917766017	8.986817398
2.920196862	8.954506275
2.922627708	8.921741726
2.925058553	8.888560199
2.927489398	8.854998854
2.929920243	8.821095564
2.932351088	8.786888883
2.934781933	8.752418024
2.937212778	8.717722829
2.939643623	8.68284374
2.942074468	8.647821768
2.944505313	8.612698455
2.946936159	8.577515841
2.949367004	8.542316418
2.951797849	8.507143091
2.954228694	8.472039126
2.956659539	8.437048105
2.959090384	8.402213872
2.961521229	8.367580472
2.963952074	8.333192098
2.966382919	8.299093023
2.968813764	8.265327538
2.97124461	8.231939879
2.973675455	8.198974159
2.9761063	8.16647429
2.978537145	8.13448391
2.98096799	8.103046296
2.983398835	8.072204288
2.98582968	8.042000201
2.988260525	8.012475741
2.99069137	7.983671916
2.993122215	7.955628947
2.995553061	7.928386178
2.997983906	7.901981987
3.000414751	7.876453693
3.002845596	7.851837466
3.005276441	7.82816824
3.007707286	7.80547962
3.010138131	7.783803798
3.012568976	7.763171469
3.014999821	7.743611743
3.017430666	7.72515207
3.019861512	7.707818164
3.022292357	7.691633925
3.024723202	7.676621378
3.027154047	7.662800603
3.029584892	7.650189679
3.032015737	7.638804631
3.034446582	7.628659382
3.036877427	7.619765713
3.039308272	7.612133224
3.041739118	7.60576931
3.044169963	7.600679139
3.046600808	7.596865632
3.049031653	7.594329465
3.051462498	7.593069057
3.053893343	7.593080589
3.056324188	7.594358007
3.058755033	7.59689305
3.061185878	7.600675275
3.063616723	7.605692094
3.066047569	7.611928813
3.068478414	7.61936868
3.070909259	7.627992939
3.073340104	7.637780891
3.075770949	7.648709958
3.078201794	7.660755752
3.080632639	7.673892148
3.083063484	7.688091369
3.085494329	7.70332406
3.087925174	7.719559381
3.09035602	7.736765091
3.092786865	7.754907641
3.09521771	7.773952265
3.097648555	7.793863077
3.1000794	7.814603162
3.102510245	7.836134678
3.10494109	7.858418946
3.107371935	7.881416546
3.10980278	7.905087418
3.112233625	7.929390946
3.114664471	7.95428606
3.117095316	7.979731319
3.119526161	8.005685006
3.121957006	8.032105209
3.124387851	8.058949908
3.126818696	8.086177053
3.129249541	8.113744648
3.131680386	8.141610818
3.134111231	8.169733888
3.136542076	8.198072445
3.138972922	8.226585409
3.141403767	8.255232091
3.143834612	8.283972253
3.146265457	8.312766161
3.148696302	8.341574637
3.151127147	8.370359109
3.153557992	8.399081651
3.155988837	8.427705028
3.158419682	8.456192731
3.160850527	8.484509014
3.163281373	8.512618925
3.165712218	8.540488332
3.168143063	8.568083952
3.170573908	8.595373374
3.173004753	8.622325075
3.175435598	8.648908443
3.177866443	8.67509379
3.180297288	8.700852367
3.182728133	8.726156371
3.185158978	8.75097896
3.187589824	8.775294254
3.190020669	8.799077348
3.192451514	8.822304308
3.194882359	8.84495218
3.197313204	8.866998987
3.199744049	8.888423733
3.202174894	8.909206396
3.204605739	8.929327931
3.207036584	8.948770265
3.209467429	8.967516273
3.211898275	8.985549804
3.21432912	9.002855684
3.216759965	9.019419685
3.21919081	9.035228524
3.221621655	9.050269849
3.2240525	9.064532242
3.226483345	9.078005205
3.22891419	9.090679156
3.231345035	9.102545419
3.23377588	9.113596217
3.236206726	9.123824662
3.238637571	9.133224748
3.241068416	9.141791342
3.243499261	9.149520175
3.245930106	9.156407834
3.248360951	9.162451753
3.250791796	9.167650203
3.253222641	9.172002289
3.255653486	9.175507934
3.258084331	9.178167878
3.260515177	9.179983663
3.262946022	9.180957632
3.265376867	9.181092914
3.267807712	9.180393424
3.270238557	9.178863847
3.272669402	9.176509637
3.275100247	9.173337006
3.277531092	9.169352918
3.279961937	9.164565081
3.282392782	9.158981939
3.284823628	9.152612667
3.287254473	9.145467162
3.289685318	9.137556036
3.292116163	9.128890608
3.294547008	9.119482901
3.296977853	9.109345626
3.299408698	9.098492185
3.301839543	9.086936654
3.304270388	9.074693782
3.306701233	9.06177898
3.309132079	9.048208311
3.311562924	9.033998486
3.313993769	9.019166853
3.316424614	9.003731385
3.318855459	8.987710675
3.321286304	8.971123924
3.323717149	8.953990929
3.326147994	8.936332105
3.328578839	8.918168406
3.331009684	8.899521341
3.33344053	8.880412975
3.335871375	8.860865913
3.33830222	8.840903281
3.340733065	8.820548713
3.34316391	8.799826331
3.345594755	8.77876073
3.3480256	8.757376962
3.350456445	8.73570051
3.35288729	8.713757275
3.355318136	8.691573552
3.357748981	8.669176004
3.360179826	8.646591646
3.362610671	8.623847812
3.365041516	8.600972134
3.367472361	8.577992515
3.369903206	8.554937097
3.372334051	8.531834232
3.374764896	8.508712454
3.377195741	8.485600441
3.379626587	8.462526987
3.382057432	8.439520962
3.384488277	8.41661128
3.386919122	8.393826857
3.389349967	8.371196574
3.391780812	8.348749241
3.394211657	8.326513548
3.396642502	8.30451803
3.399073347	8.28279102
3.401504192	8.261360609
3.403935038	8.240254595
3.406365883	8.219500444
3.408796728	8.19912524
3.411227573	8.179155643
3.413658418	8.159617836
3.416089263	8.140537483
3.418520108	8.121939683
3.420950953	8.103848917
3.423381798	8.086289008
